<svg width="960" height="320" viewBox="0 0 960 320" fill="none" xmlns="http://www.w3.org/2000/svg">
  <defs>
    <linearGradient id="pulseBg" x1="0" y1="0" x2="960" y2="320" gradientUnits="userSpaceOnUse">
      <stop offset="0" stop-color="#07121E"/>
      <stop offset="1" stop-color="#0E2740"/>
    </linearGradient>
    <linearGradient id="pulseLine" x1="54" y1="72" x2="906" y2="246" gradientUnits="userSpaceOnUse">
      <stop offset="0" stop-color="#6EA8FE"/>
      <stop offset="1" stop-color="#2F6FEB"/>
    </linearGradient>
    <linearGradient id="pulseArea" x1="0" y1="0" x2="0" y2="1">
      <stop offset="0" stop-color="#2F6FEB" stop-opacity="0.38"/>
      <stop offset="1" stop-color="#2F6FEB" stop-opacity="0.03"/>
    </linearGradient>
    <filter id="glow">
      <feGaussianBlur stdDeviation="8"/>
    </filter>
  </defs>
  <rect width="960" height="320" rx="28" fill="url(#pulseBg)"/>
  <text x="52" y="48" fill="#E6F1FF" font-size="26" font-family="Segoe UI, Arial, sans-serif" font-weight="700">Neural Pulse</text>
  <text x="52" y="68" fill="#9ECFFF" font-size="14" font-family="Segoe UI, Arial, sans-serif">A synthetic live pulse that will be replaced by real weekly activity</text>
  <g stroke="rgba(110,168,254,0.12)" stroke-width="1">
    <line x1="54" y1="92" x2="906" y2="92"/>
    <line x1="54" y1="142" x2="906" y2="142"/>
    <line x1="54" y1="192" x2="906" y2="192"/>
    <line x1="54" y1="242" x2="906" y2="242"/>
  </g>
  <path d="M54 224L131.45 202L208.9 210L286.36 168L363.81 182L441.27 140L518.72 148L596.18 114L673.63 126L751.09 92L828.54 106L906 84L906 266L54 266Z" fill="url(#pulseArea)"/>
  <path d="M54 224L131.45 202L208.9 210L286.36 168L363.81 182L441.27 140L518.72 148L596.18 114L673.63 126L751.09 92L828.54 106L906 84" stroke="url(#pulseLine)" stroke-width="4" stroke-linecap="round" stroke-linejoin="round" filter="url(#glow)"/>
  <path d="M54 224L131.45 202L208.9 210L286.36 168L363.81 182L441.27 140L518.72 148L596.18 114L673.63 126L751.09 92L828.54 106L906 84" stroke="#EAF4FF" stroke-opacity="0.7" stroke-width="1.3" stroke-linecap="round" stroke-linejoin="round"/>
  <g fill="#EAF4FF">
    <circle cx="54" cy="224" r="5"/>
    <circle cx="131.45" cy="202" r="5"/>
    <circle cx="208.9" cy="210" r="5"/>
    <circle cx="286.36" cy="168" r="5"/>
    <circle cx="363.81" cy="182" r="5"/>
    <circle cx="441.27" cy="140" r="5"/>
    <circle cx="518.72" cy="148" r="5"/>
    <circle cx="596.18" cy="114" r="5"/>
    <circle cx="673.63" cy="126" r="5"/>
    <circle cx="751.09" cy="92" r="5"/>
    <circle cx="828.54" cy="106" r="5"/>
    <circle cx="906" cy="84" r="5"/>
  </g>
  <text x="52" y="286" fill="#C9D1D9" font-size="13" font-family="Segoe UI, Arial, sans-serif">12-week pulse window</text>
  <text x="744" y="286" fill="#6EA8FE" font-size="13" font-family="Segoe UI, Arial, sans-serif">peak intensity: adaptive</text>
</svg>