<svg width="960" height="320" viewBox="0 0 960 320" fill="none" xmlns="http://www.w3.org/2000/svg">
  <defs>
    <linearGradient id="pulseBg" x1="0" y1="0" x2="960" y2="320" gradientUnits="userSpaceOnUse">
      <stop offset="0" stop-color="#07121E"/>
      <stop offset="1" stop-color="#0E2740"/>
    </linearGradient>
    <linearGradient id="pulseLine" x1="54" y1="72" x2="906" y2="246" gradientUnits="userSpaceOnUse">
      <stop offset="0" stop-color="#6EA8FE"/>
      <stop offset="1" stop-color="#2F6FEB"/>
    </linearGradient>
    <linearGradient id="pulseArea" x1="0" y1="0" x2="0" y2="1">
      <stop offset="0" stop-color="#2F6FEB" stop-opacity="0.38"/>
      <stop offset="1" stop-color="#2F6FEB" stop-opacity="0.02"/>
    </linearGradient>
    <filter id="glow">
      <feGaussianBlur stdDeviation="8"/>
    </filter>
  </defs>
  <rect width="960" height="320" rx="28" fill="url(#pulseBg)"/>
  <text x="52" y="48" fill="#E6F1FF" font-size="26" font-family="Segoe UI, Arial, sans-serif" font-weight="700">Neural Pulse</text>
  <text x="52" y="68" fill="#9ECFFF" font-size="14" font-family="Segoe UI, Arial, sans-serif">Weekly contribution voltage for HexAbyss</text>
  <line x1="54" y1="72.00" x2="906" y2="72.00" stroke="rgba(110,168,254,0.12)" stroke-width="1"/>
<line x1="54" y1="136.67" x2="906" y2="136.67" stroke="rgba(110,168,254,0.12)" stroke-width="1"/>
<line x1="54" y1="201.33" x2="906" y2="201.33" stroke="rgba(110,168,254,0.12)" stroke-width="1"/>
<line x1="54" y1="266.00" x2="906" y2="266.00" stroke="rgba(110,168,254,0.12)" stroke-width="1"/>
  <path d="M 54.00 260.80 L 131.45 266.00 L 208.91 265.53 L 286.36 257.49 L 363.82 248.51 L 441.27 253.24 L 518.73 245.20 L 596.18 227.24 L 673.64 220.62 L 751.09 154.44 L 828.55 207.38 L 906.00 84.00 L 906.00 266.00 L 54.00 266.00 Z" fill="url(#pulseArea)"/>
  <path d="M 54.00 260.80 L 131.45 266.00 L 208.91 265.53 L 286.36 257.49 L 363.82 248.51 L 441.27 253.24 L 518.73 245.20 L 596.18 227.24 L 673.64 220.62 L 751.09 154.44 L 828.55 207.38 L 906.00 84.00" stroke="url(#pulseLine)" stroke-width="4" stroke-linecap="round" stroke-linejoin="round" filter="url(#glow)"/>
  <path d="M 54.00 260.80 L 131.45 266.00 L 208.91 265.53 L 286.36 257.49 L 363.82 248.51 L 441.27 253.24 L 518.73 245.20 L 596.18 227.24 L 673.64 220.62 L 751.09 154.44 L 828.55 207.38 L 906.00 84.00" stroke="#EAF4FF" stroke-opacity="0.75" stroke-width="1.4" stroke-linecap="round" stroke-linejoin="round"/>
  
    <circle cx="54.00" cy="260.80" r="5.5" fill="#EAF4FF" opacity="0.95"/>
    <circle cx="54.00" cy="260.80" r="14" fill="#2F6FEB" opacity="0.16" filter="url(#glow)"/>
  

    <circle cx="131.45" cy="266.00" r="5.5" fill="#EAF4FF" opacity="0.95"/>
    <circle cx="131.45" cy="266.00" r="14" fill="#2F6FEB" opacity="0.16" filter="url(#glow)"/>
  

    <circle cx="208.91" cy="265.53" r="5.5" fill="#EAF4FF" opacity="0.95"/>
    <circle cx="208.91" cy="265.53" r="14" fill="#2F6FEB" opacity="0.16" filter="url(#glow)"/>
  

    <circle cx="286.36" cy="257.49" r="5.5" fill="#EAF4FF" opacity="0.95"/>
    <circle cx="286.36" cy="257.49" r="14" fill="#2F6FEB" opacity="0.16" filter="url(#glow)"/>
  

    <circle cx="363.82" cy="248.51" r="5.5" fill="#EAF4FF" opacity="0.95"/>
    <circle cx="363.82" cy="248.51" r="14" fill="#2F6FEB" opacity="0.16" filter="url(#glow)"/>
  

    <circle cx="441.27" cy="253.24" r="5.5" fill="#EAF4FF" opacity="0.95"/>
    <circle cx="441.27" cy="253.24" r="14" fill="#2F6FEB" opacity="0.16" filter="url(#glow)"/>
  

    <circle cx="518.73" cy="245.20" r="5.5" fill="#EAF4FF" opacity="0.95"/>
    <circle cx="518.73" cy="245.20" r="14" fill="#2F6FEB" opacity="0.16" filter="url(#glow)"/>
  

    <circle cx="596.18" cy="227.24" r="5.5" fill="#EAF4FF" opacity="0.95"/>
    <circle cx="596.18" cy="227.24" r="14" fill="#2F6FEB" opacity="0.16" filter="url(#glow)"/>
  

    <circle cx="673.64" cy="220.62" r="5.5" fill="#EAF4FF" opacity="0.95"/>
    <circle cx="673.64" cy="220.62" r="14" fill="#2F6FEB" opacity="0.16" filter="url(#glow)"/>
  

    <circle cx="751.09" cy="154.44" r="5.5" fill="#EAF4FF" opacity="0.95"/>
    <circle cx="751.09" cy="154.44" r="14" fill="#2F6FEB" opacity="0.16" filter="url(#glow)"/>
  

    <circle cx="828.55" cy="207.38" r="5.5" fill="#EAF4FF" opacity="0.95"/>
    <circle cx="828.55" cy="207.38" r="14" fill="#2F6FEB" opacity="0.16" filter="url(#glow)"/>
  

    <circle cx="906.00" cy="84.00" r="5.5" fill="#EAF4FF" opacity="0.95"/>
    <circle cx="906.00" cy="84.00" r="14" fill="#2F6FEB" opacity="0.16" filter="url(#glow)"/>
  
  <text x="52" y="286" fill="#C9D1D9" font-size="13" font-family="Segoe UI, Arial, sans-serif">12-week pulse window</text>
  <text x="782" y="286" fill="#6EA8FE" font-size="13" font-family="Segoe UI, Arial, sans-serif">peak intensity: 385</text>
</svg>