<svg width="1640" height="1560" viewBox="0 0 1640 1560" fill="none" xmlns="http://www.w3.org/2000/svg">
  <defs>
    <linearGradient id="solarMainBg" x1="0" y1="0" x2="1640" y2="1560" gradientUnits="userSpaceOnUse">
      <stop offset="0" stop-color="#050D16"/>
      <stop offset="0.55" stop-color="#0A1A2C"/>
      <stop offset="1" stop-color="#122A45"/>
    </linearGradient>
    <radialGradient id="solarMainGlow" cx="0" cy="0" r="1" gradientUnits="userSpaceOnUse" gradientTransform="translate(820 780) rotate(90) scale(320)">
      <stop offset="0" stop-color="#F6D365" stop-opacity="0.68"/>
      <stop offset="1" stop-color="#F6D365" stop-opacity="0"/>
    </radialGradient>
    <radialGradient id="solarMainCore" cx="0" cy="0" r="1" gradientUnits="userSpaceOnUse" gradientTransform="translate(806 758) rotate(60) scale(128 128)">
      <stop offset="0" stop-color="#FFF2B2"/>
      <stop offset="0.58" stop-color="#F6D365"/>
      <stop offset="1" stop-color="#E39B27"/>
    </radialGradient>
    <filter id="solarMainSoftGlow" x="-50%" y="-50%" width="200%" height="200%">
      <feGaussianBlur stdDeviation="22"/>
    </filter>
  </defs>
  <rect width="1640" height="1560" rx="32" fill="url(#solarMainBg)"/>
  <rect x="20" y="20" width="1600" height="1520" rx="24" stroke="rgba(158,207,255,0.14)"/>
  <circle cx="1365.26" cy="92.04" r="0.87" fill="#A7D4FF" opacity="0.16"/>
  <circle cx="626.87" cy="1230.69" r="1.77" fill="#A7D4FF" opacity="0.16"/>
  <circle cx="86.31" cy="136.34" r="1.51" fill="#A7D4FF" opacity="0.38"/>
  <circle cx="44.75" cy="1396.34" r="0.93" fill="#A7D4FF" opacity="0.42"/>
  <circle cx="613.00" cy="286.76" r="1.08" fill="#A7D4FF" opacity="0.33"/>
  <circle cx="1207.81" cy="132.08" r="1.30" fill="#A7D4FF" opacity="0.27"/>
  <circle cx="136.93" cy="1274.98" r="1.77" fill="#A7D4FF" opacity="0.45"/>
  <circle cx="267.57" cy="897.41" r="2.01" fill="#A7D4FF" opacity="0.26"/>
  <circle cx="107.28" cy="976.01" r="1.99" fill="#A7D4FF" opacity="0.42"/>
  <circle cx="968.00" cy="865.09" r="2.06" fill="#A7D4FF" opacity="0.35"/>
  <circle cx="786.33" cy="1274.20" r="1.86" fill="#A7D4FF" opacity="0.40"/>
  <circle cx="1290.71" cy="1425.43" r="0.85" fill="#A7D4FF" opacity="0.41"/>
  <circle cx="1476.46" cy="281.72" r="1.53" fill="#A7D4FF" opacity="0.40"/>
  <circle cx="99.67" cy="1019.00" r="0.70" fill="#A7D4FF" opacity="0.44"/>
  <circle cx="50.58" cy="149.62" r="1.55" fill="#A7D4FF" opacity="0.26"/>
  <circle cx="1497.51" cy="537.93" r="2.19" fill="#A7D4FF" opacity="0.17"/>
  <circle cx="1338.16" cy="231.32" r="1.37" fill="#A7D4FF" opacity="0.40"/>
  <circle cx="973.16" cy="127.69" r="1.48" fill="#A7D4FF" opacity="0.32"/>
  <circle cx="934.70" cy="1302.63" r="1.73" fill="#A7D4FF" opacity="0.19"/>
  <circle cx="1101.18" cy="997.30" r="2.16" fill="#A7D4FF" opacity="0.19"/>
  <circle cx="154.73" cy="1182.26" r="1.62" fill="#A7D4FF" opacity="0.34"/>
  <circle cx="1072.43" cy="142.18" r="1.95" fill="#A7D4FF" opacity="0.23"/>
  <circle cx="1184.24" cy="1408.85" r="0.87" fill="#A7D4FF" opacity="0.46"/>
  <circle cx="1448.32" cy="659.32" r="1.12" fill="#A7D4FF" opacity="0.24"/>
  <circle cx="1536.75" cy="782.48" r="0.96" fill="#A7D4FF" opacity="0.19"/>
  <circle cx="258.54" cy="1367.13" r="2.08" fill="#A7D4FF" opacity="0.38"/>
  <circle cx="548.71" cy="1474.68" r="2.40" fill="#A7D4FF" opacity="0.26"/>
  <circle cx="1138.35" cy="505.64" r="1.84" fill="#A7D4FF" opacity="0.25"/>
  <circle cx="402.56" cy="490.95" r="2.17" fill="#A7D4FF" opacity="0.25"/>
  <circle cx="73.20" cy="1421.33" r="0.78" fill="#A7D4FF" opacity="0.19"/>
  <circle cx="85.14" cy="1261.78" r="2.15" fill="#A7D4FF" opacity="0.19"/>
  <circle cx="103.09" cy="580.32" r="0.74" fill="#A7D4FF" opacity="0.20"/>
  <circle cx="1385.74" cy="1514.14" r="1.39" fill="#A7D4FF" opacity="0.40"/>
  <circle cx="1450.20" cy="246.20" r="1.42" fill="#A7D4FF" opacity="0.38"/>
  <circle cx="1461.53" cy="1271.54" r="1.13" fill="#A7D4FF" opacity="0.38"/>
  <circle cx="502.22" cy="462.27" r="2.30" fill="#A7D4FF" opacity="0.45"/>
  <circle cx="626.60" cy="742.51" r="0.90" fill="#A7D4FF" opacity="0.36"/>
  <circle cx="834.98" cy="578.30" r="1.09" fill="#A7D4FF" opacity="0.39"/>
  <circle cx="1484.39" cy="193.63" r="1.99" fill="#A7D4FF" opacity="0.41"/>
  <circle cx="1250.79" cy="1249.80" r="1.23" fill="#A7D4FF" opacity="0.21"/>
  <circle cx="995.71" cy="295.05" r="1.97" fill="#A7D4FF" opacity="0.37"/>
  <circle cx="632.08" cy="861.81" r="1.58" fill="#A7D4FF" opacity="0.44"/>
  <circle cx="954.21" cy="1426.49" r="1.96" fill="#A7D4FF" opacity="0.33"/>
  <circle cx="506.71" cy="1497.11" r="2.37" fill="#A7D4FF" opacity="0.35"/>
  <circle cx="253.36" cy="431.76" r="1.40" fill="#A7D4FF" opacity="0.37"/>
  <circle cx="548.65" cy="257.05" r="2.27" fill="#A7D4FF" opacity="0.43"/>
  <circle cx="784.97" cy="1453.78" r="1.95" fill="#A7D4FF" opacity="0.23"/>
  <circle cx="1342.26" cy="710.77" r="0.99" fill="#A7D4FF" opacity="0.48"/>
  <circle cx="1497.11" cy="26.12" r="2.46" fill="#A7D4FF" opacity="0.32"/>
  <circle cx="81.98" cy="624.98" r="2.00" fill="#A7D4FF" opacity="0.19"/>
  <circle cx="1307.66" cy="900.96" r="1.29" fill="#A7D4FF" opacity="0.19"/>
  <circle cx="1495.60" cy="1334.24" r="0.92" fill="#A7D4FF" opacity="0.30"/>
  <circle cx="1321.24" cy="61.65" r="2.35" fill="#A7D4FF" opacity="0.49"/>
  <circle cx="1006.96" cy="951.69" r="1.05" fill="#A7D4FF" opacity="0.16"/>
  <circle cx="1573.74" cy="471.71" r="1.40" fill="#A7D4FF" opacity="0.20"/>
  <circle cx="634.23" cy="148.36" r="2.04" fill="#A7D4FF" opacity="0.25"/>
  <circle cx="264.27" cy="1080.36" r="1.34" fill="#A7D4FF" opacity="0.29"/>
  <circle cx="311.60" cy="844.89" r="1.22" fill="#A7D4FF" opacity="0.24"/>
  <circle cx="250.68" cy="1420.50" r="2.33" fill="#A7D4FF" opacity="0.43"/>
  <circle cx="1250.54" cy="839.84" r="2.24" fill="#A7D4FF" opacity="0.37"/>
  <circle cx="520.49" cy="631.27" r="1.09" fill="#A7D4FF" opacity="0.38"/>
  <circle cx="644.53" cy="1006.43" r="2.31" fill="#A7D4FF" opacity="0.43"/>
  <circle cx="1293.43" cy="1489.03" r="1.07" fill="#A7D4FF" opacity="0.49"/>
  <circle cx="1597.28" cy="865.80" r="1.05" fill="#A7D4FF" opacity="0.24"/>
  <circle cx="467.40" cy="1302.90" r="1.15" fill="#A7D4FF" opacity="0.45"/>
  <circle cx="66.49" cy="680.80" r="2.31" fill="#A7D4FF" opacity="0.39"/>
  <circle cx="511.94" cy="1426.78" r="2.45" fill="#A7D4FF" opacity="0.39"/>
  <circle cx="1359.07" cy="998.23" r="1.65" fill="#A7D4FF" opacity="0.34"/>
  <circle cx="337.26" cy="611.81" r="0.86" fill="#A7D4FF" opacity="0.21"/>
  <circle cx="905.85" cy="1151.62" r="1.03" fill="#A7D4FF" opacity="0.14"/>
  <circle cx="794.65" cy="927.47" r="1.26" fill="#A7D4FF" opacity="0.17"/>
  <circle cx="955.88" cy="1260.49" r="1.90" fill="#A7D4FF" opacity="0.19"/>
  <circle cx="1520.56" cy="547.03" r="1.29" fill="#A7D4FF" opacity="0.43"/>
  <circle cx="1102.10" cy="166.13" r="2.08" fill="#A7D4FF" opacity="0.31"/>
  <circle cx="268.00" cy="613.59" r="2.18" fill="#A7D4FF" opacity="0.49"/>
  <circle cx="846.58" cy="1399.84" r="1.70" fill="#A7D4FF" opacity="0.44"/>
  <circle cx="1093.55" cy="482.61" r="1.75" fill="#A7D4FF" opacity="0.33"/>
  <circle cx="1469.31" cy="1479.72" r="2.13" fill="#A7D4FF" opacity="0.28"/>
  <circle cx="1151.89" cy="996.89" r="1.86" fill="#A7D4FF" opacity="0.45"/>
  <circle cx="832.38" cy="1359.92" r="1.30" fill="#A7D4FF" opacity="0.26"/>
  <circle cx="673.72" cy="674.12" r="1.67" fill="#A7D4FF" opacity="0.40"/>
  <circle cx="223.72" cy="208.40" r="1.86" fill="#A7D4FF" opacity="0.29"/>
  <circle cx="1103.26" cy="1438.87" r="1.66" fill="#A7D4FF" opacity="0.40"/>
  <circle cx="952.37" cy="241.24" r="1.38" fill="#A7D4FF" opacity="0.22"/>
  <circle cx="947.27" cy="1219.12" r="0.75" fill="#A7D4FF" opacity="0.16"/>
  <circle cx="247.16" cy="1445.33" r="2.46" fill="#A7D4FF" opacity="0.27"/>
  <circle cx="479.51" cy="623.29" r="2.35" fill="#A7D4FF" opacity="0.39"/>
  <circle cx="786.99" cy="1309.71" r="1.39" fill="#A7D4FF" opacity="0.33"/>
  <circle cx="972.69" cy="1017.70" r="0.85" fill="#A7D4FF" opacity="0.30"/>
  <circle cx="430.56" cy="1077.29" r="2.12" fill="#A7D4FF" opacity="0.16"/>
  <circle cx="50.03" cy="52.66" r="2.40" fill="#A7D4FF" opacity="0.14"/>
  <circle cx="353.57" cy="373.12" r="1.47" fill="#A7D4FF" opacity="0.41"/>
  <circle cx="668.18" cy="1268.93" r="0.72" fill="#A7D4FF" opacity="0.38"/>
  <circle cx="1345.50" cy="1377.18" r="1.58" fill="#A7D4FF" opacity="0.17"/>
  <circle cx="299.72" cy="1496.76" r="1.75" fill="#A7D4FF" opacity="0.43"/>
  <circle cx="1001.81" cy="1373.62" r="0.74" fill="#A7D4FF" opacity="0.33"/>
  <circle cx="115.18" cy="1407.40" r="1.50" fill="#A7D4FF" opacity="0.26"/>
  <circle cx="1363.67" cy="892.56" r="2.43" fill="#A7D4FF" opacity="0.36"/>
  <circle cx="732.47" cy="1417.13" r="1.87" fill="#A7D4FF" opacity="0.44"/>
  <circle cx="1533.24" cy="228.28" r="1.03" fill="#A7D4FF" opacity="0.36"/>
  <circle cx="453.90" cy="1087.73" r="1.41" fill="#A7D4FF" opacity="0.37"/>
  <circle cx="736.36" cy="966.10" r="1.81" fill="#A7D4FF" opacity="0.25"/>
  <circle cx="766.66" cy="511.55" r="2.30" fill="#A7D4FF" opacity="0.30"/>
  <circle cx="688.79" cy="421.53" r="1.56" fill="#A7D4FF" opacity="0.30"/>
  <circle cx="1594.78" cy="657.00" r="1.33" fill="#A7D4FF" opacity="0.20"/>
  <circle cx="897.98" cy="160.12" r="1.53" fill="#A7D4FF" opacity="0.50"/>
  <circle cx="630.64" cy="1162.57" r="0.74" fill="#A7D4FF" opacity="0.21"/>
  <circle cx="1228.26" cy="1381.68" r="0.90" fill="#A7D4FF" opacity="0.22"/>
  <circle cx="1521.97" cy="115.35" r="1.23" fill="#A7D4FF" opacity="0.40"/>
  <circle cx="585.59" cy="777.06" r="0.98" fill="#A7D4FF" opacity="0.35"/>
  <circle cx="666.29" cy="350.01" r="2.19" fill="#A7D4FF" opacity="0.43"/>
  <circle cx="1273.80" cy="465.43" r="2.46" fill="#A7D4FF" opacity="0.32"/>
  <circle cx="372.92" cy="1100.38" r="2.15" fill="#A7D4FF" opacity="0.20"/>
  <circle cx="1510.32" cy="260.01" r="0.85" fill="#A7D4FF" opacity="0.44"/>
  <circle cx="632.45" cy="707.42" r="1.05" fill="#A7D4FF" opacity="0.48"/>
  <circle cx="1573.42" cy="990.37" r="1.98" fill="#A7D4FF" opacity="0.21"/>
  <circle cx="1333.77" cy="1311.74" r="0.88" fill="#A7D4FF" opacity="0.20"/>
  <circle cx="1292.95" cy="737.17" r="1.44" fill="#A7D4FF" opacity="0.19"/>
  <circle cx="600.48" cy="410.63" r="1.01" fill="#A7D4FF" opacity="0.15"/>
  <circle cx="28.53" cy="611.45" r="2.09" fill="#A7D4FF" opacity="0.21"/>
  <circle cx="390.93" cy="1031.57" r="0.86" fill="#A7D4FF" opacity="0.16"/>
  <circle cx="727.36" cy="422.39" r="0.97" fill="#A7D4FF" opacity="0.30"/>
  <circle cx="257.70" cy="1210.22" r="0.81" fill="#A7D4FF" opacity="0.15"/>
  <circle cx="549.38" cy="865.54" r="1.59" fill="#A7D4FF" opacity="0.26"/>
  <text x="44" y="64" fill="#F0F6FC" font-size="33" font-family="Segoe UI, Arial, sans-serif" font-weight="700">System Solar Map</text>
  <text x="44" y="92" fill="#9ECFFF" font-size="15.5" font-family="Segoe UI, Arial, sans-serif">Large view of the system model: Architecture is fixed at the center, planets orbit slowly, and the moon symbols orbit faster around each domain.</text>
  <circle cx="820" cy="780" r="164" fill="url(#solarMainGlow)" opacity="0.88" filter="url(#solarMainSoftGlow)"/>
  <circle cx="820" cy="780" r="220" fill="none" stroke="#2F6FEB" stroke-opacity="0.22" stroke-width="1.45" stroke-dasharray="10 12"/>
  <circle cx="820" cy="780" r="290" fill="none" stroke="#58A6FF" stroke-opacity="0.22" stroke-width="1.45" stroke-dasharray="10 12"/>
  <circle cx="820" cy="780" r="360" fill="none" stroke="#6EA8FE" stroke-opacity="0.22" stroke-width="1.45" stroke-dasharray="10 12"/>
  <circle cx="820" cy="780" r="430" fill="none" stroke="#9ECFFF" stroke-opacity="0.22" stroke-width="1.45" stroke-dasharray="10 12"/>
  <circle cx="820" cy="780" r="500" fill="none" stroke="#7AA2F7" stroke-opacity="0.22" stroke-width="1.45" stroke-dasharray="10 12"/>
  <circle cx="820" cy="780" r="570" fill="none" stroke="#4F8FE8" stroke-opacity="0.22" stroke-width="1.45" stroke-dasharray="10 12"/>
  <g>
    <circle cx="820" cy="780" r="78" fill="url(#solarMainCore)" stroke="#FFE9A3" stroke-width="2.2"/>
    <circle cx="820" cy="780" r="112" fill="none" stroke="rgba(246,211,101,0.18)" stroke-width="1.4"/>
    <text x="820" y="782" fill="#08203A" font-size="27" font-family="Segoe UI, Arial, sans-serif" font-weight="800" text-anchor="middle" dominant-baseline="middle">Arch</text>
  </g>
  
  <g transform="translate(820 780) rotate(212)">
    <g>
      <animateTransform attributeName="transform" type="rotate" from="0 0 0" to="360 0 0" dur="78s" repeatCount="indefinite"/>
      <g transform="translate(220 0)">
        <g transform="rotate(-212)">
        <g>
          <animateTransform attributeName="transform" type="rotate" from="0 0 0" to="-360 0 0" dur="78s" repeatCount="indefinite"/>
          
        <g transform="rotate(0)">
          <g>
            <animateTransform attributeName="transform" type="rotate" from="0 0 0" to="360 0 0" dur="18s" repeatCount="indefinite"/>
            <g transform="translate(86 0)">
              
  <g opacity="0.8">
    <path d="M 0 0 Q -1 -18 0 -32" stroke="#F0F6FC" stroke-opacity="0.34" stroke-width="2.2" stroke-linecap="round" fill="none"/>
    <path d="M 0 0 Q -0.5 -13.5 0 -19.2" stroke="#F0F6FC" stroke-opacity="0.7" stroke-width="1.2" stroke-linecap="round" fill="none"/>
  </g>
              <g transform="rotate(0)">
              <g>
                <animateTransform attributeName="transform" type="rotate" from="0 0 0" to="-360 0 0" dur="18s" repeatCount="indefinite"/>
                
  <g transform="translate(0 0)">
    <circle cx="0" cy="0" r="18" fill="#07111D" stroke="#F0F6FC" stroke-width="1.2"/>
    <g transform="scale(1.714)">
      <text x="0" y="0.5" fill="#F0F6FC" font-size="9.5" font-family="Segoe UI, Arial, sans-serif" font-weight="800" text-anchor="middle" dominant-baseline="middle">N</text>
    </g>
  </g>
              </g>
              </g>
            </g>
          </g>
        </g>

        <g transform="rotate(120)">
          <g>
            <animateTransform attributeName="transform" type="rotate" from="0 0 0" to="360 0 0" dur="18s" repeatCount="indefinite"/>
            <g transform="translate(86 0)">
              
  <g opacity="0.8">
    <path d="M 0 0 Q -1 -18 0 -32" stroke="#61DAFB" stroke-opacity="0.34" stroke-width="2.2" stroke-linecap="round" fill="none"/>
    <path d="M 0 0 Q -0.5 -13.5 0 -19.2" stroke="#61DAFB" stroke-opacity="0.7" stroke-width="1.2" stroke-linecap="round" fill="none"/>
  </g>
              <g transform="rotate(-120)">
              <g>
                <animateTransform attributeName="transform" type="rotate" from="0 0 0" to="-360 0 0" dur="18s" repeatCount="indefinite"/>
                
  <g transform="translate(0 0)">
    <circle cx="0" cy="0" r="18" fill="#07111D" stroke="#61DAFB" stroke-width="1.2"/>
    <g transform="scale(1.714)">
      
    <g stroke="#61DAFB" stroke-width="1" fill="none">
      <ellipse cx="0" cy="0" rx="5.8" ry="2.4"/>
      <ellipse cx="0" cy="0" rx="5.8" ry="2.4" transform="rotate(60)"/>
      <ellipse cx="0" cy="0" rx="5.8" ry="2.4" transform="rotate(120)"/>
    </g>
    <circle cx="0" cy="0" r="1.4" fill="#61DAFB"/>
    </g>
  </g>
              </g>
              </g>
            </g>
          </g>
        </g>

        <g transform="rotate(240)">
          <g>
            <animateTransform attributeName="transform" type="rotate" from="0 0 0" to="360 0 0" dur="18s" repeatCount="indefinite"/>
            <g transform="translate(86 0)">
              
  <g opacity="0.8">
    <path d="M 0 0 Q -1 -18 0 -32" stroke="#3178c6" stroke-opacity="0.34" stroke-width="2.2" stroke-linecap="round" fill="none"/>
    <path d="M 0 0 Q -0.5 -13.5 0 -19.2" stroke="#3178c6" stroke-opacity="0.7" stroke-width="1.2" stroke-linecap="round" fill="none"/>
  </g>
              <g transform="rotate(-240)">
              <g>
                <animateTransform attributeName="transform" type="rotate" from="0 0 0" to="-360 0 0" dur="18s" repeatCount="indefinite"/>
                
  <g transform="translate(0 0)">
    <circle cx="0" cy="0" r="18" fill="#07111D" stroke="#3178c6" stroke-width="1.2"/>
    <g transform="scale(1.714)">
      
    <rect x="-5" y="-5" width="10" height="10" rx="2" fill="none" stroke="#3178c6" stroke-width="1"/>
    <text x="0" y="0.4" fill="#3178c6" font-size="4.5" font-family="Segoe UI, Arial, sans-serif" font-weight="800" text-anchor="middle" dominant-baseline="middle">TS</text>
    </g>
  </g>
              </g>
              </g>
            </g>
          </g>
        </g>
          <circle cx="0" cy="0" r="68" fill="#2F6FEB" opacity="0.08" filter="url(#solarMainSoftGlow)"/>
          <circle cx="0" cy="0" r="46" fill="#091522" stroke="#2F6FEB" stroke-width="2.1"/>
          <circle cx="-15" cy="-17" r="10" fill="#FFFFFF" opacity="0.08"/>
          <text x="0" y="1.5" fill="#F0F6FC" font-size="16" font-family="Segoe UI, Arial, sans-serif" font-weight="800" text-anchor="middle" dominant-baseline="middle">WS</text>
        </g>
        </g>
      </g>
    </g>
  </g>

  <g transform="translate(820 780) rotate(18)">
    <g>
      <animateTransform attributeName="transform" type="rotate" from="0 0 0" to="360 0 0" dur="81s" repeatCount="indefinite"/>
      <g transform="translate(290 0)">
        <g transform="rotate(-18)">
        <g>
          <animateTransform attributeName="transform" type="rotate" from="0 0 0" to="-360 0 0" dur="81s" repeatCount="indefinite"/>
          
        <g transform="rotate(0)">
          <g>
            <animateTransform attributeName="transform" type="rotate" from="0 0 0" to="360 0 0" dur="16s" repeatCount="indefinite"/>
            <g transform="translate(88 0)">
              
  <g opacity="0.8">
    <path d="M 0 0 Q -1 -18 0 -32" stroke="#dea584" stroke-opacity="0.34" stroke-width="2.2" stroke-linecap="round" fill="none"/>
    <path d="M 0 0 Q -0.5 -13.5 0 -19.2" stroke="#dea584" stroke-opacity="0.7" stroke-width="1.2" stroke-linecap="round" fill="none"/>
  </g>
              <g transform="rotate(0)">
              <g>
                <animateTransform attributeName="transform" type="rotate" from="0 0 0" to="-360 0 0" dur="16s" repeatCount="indefinite"/>
                
  <g transform="translate(0 0)">
    <circle cx="0" cy="0" r="18" fill="#07111D" stroke="#dea584" stroke-width="1.2"/>
    <g transform="scale(1.714)">
      
    <circle cx="0" cy="0" r="4.8" fill="none" stroke="#dea584" stroke-width="1" stroke-dasharray="1.2 2.2"/>
    <text x="0" y="0.5" fill="#dea584" font-size="6.4" font-family="Segoe UI, Arial, sans-serif" font-weight="800" text-anchor="middle" dominant-baseline="middle">R</text>
    </g>
  </g>
              </g>
              </g>
            </g>
          </g>
        </g>

        <g transform="rotate(120)">
          <g>
            <animateTransform attributeName="transform" type="rotate" from="0 0 0" to="360 0 0" dur="16s" repeatCount="indefinite"/>
            <g transform="translate(88 0)">
              
  <g opacity="0.8">
    <path d="M 0 0 Q -1 -18 0 -32" stroke="#555555" stroke-opacity="0.34" stroke-width="2.2" stroke-linecap="round" fill="none"/>
    <path d="M 0 0 Q -0.5 -13.5 0 -19.2" stroke="#555555" stroke-opacity="0.7" stroke-width="1.2" stroke-linecap="round" fill="none"/>
  </g>
              <g transform="rotate(-120)">
              <g>
                <animateTransform attributeName="transform" type="rotate" from="0 0 0" to="-360 0 0" dur="16s" repeatCount="indefinite"/>
                
  <g transform="translate(0 0)">
    <circle cx="0" cy="0" r="18" fill="#07111D" stroke="#555555" stroke-width="1.2"/>
    <g transform="scale(1.714)">
      <text x="0" y="0.5" fill="#555555" font-size="8.6" font-family="Segoe UI, Arial, sans-serif" font-weight="800" text-anchor="middle" dominant-baseline="middle">C</text>
    </g>
  </g>
              </g>
              </g>
            </g>
          </g>
        </g>

        <g transform="rotate(240)">
          <g>
            <animateTransform attributeName="transform" type="rotate" from="0 0 0" to="360 0 0" dur="16s" repeatCount="indefinite"/>
            <g transform="translate(88 0)">
              
  <g opacity="0.8">
    <path d="M 0 0 Q -1 -18 0 -32" stroke="#FCC624" stroke-opacity="0.34" stroke-width="2.2" stroke-linecap="round" fill="none"/>
    <path d="M 0 0 Q -0.5 -13.5 0 -19.2" stroke="#FCC624" stroke-opacity="0.7" stroke-width="1.2" stroke-linecap="round" fill="none"/>
  </g>
              <g transform="rotate(-240)">
              <g>
                <animateTransform attributeName="transform" type="rotate" from="0 0 0" to="-360 0 0" dur="16s" repeatCount="indefinite"/>
                
  <g transform="translate(0 0)">
    <circle cx="0" cy="0" r="18" fill="#07111D" stroke="#FCC624" stroke-width="1.2"/>
    <g transform="scale(1.714)">
      
    <rect x="-5.5" y="-4" width="11" height="8" rx="1.8" fill="none" stroke="#FCC624" stroke-width="1"/>
    <path d="M-2.8 1.8l1.4-1.4-1.4-1.4" stroke="#FCC624" stroke-width="1" stroke-linecap="round" stroke-linejoin="round" fill="none"/>
    <path d="M1 2.2h3.2" stroke="#FCC624" stroke-width="1" stroke-linecap="round"/>
    <path d="M-3.8 -5.3h7.6" stroke="#FCC624" stroke-width="1" stroke-linecap="round"/>
    </g>
  </g>
              </g>
              </g>
            </g>
          </g>
        </g>
          <circle cx="0" cy="0" r="69" fill="#58A6FF" opacity="0.08" filter="url(#solarMainSoftGlow)"/>
          <circle cx="0" cy="0" r="47" fill="#091522" stroke="#58A6FF" stroke-width="2.1"/>
          <circle cx="-15" cy="-18" r="10" fill="#FFFFFF" opacity="0.08"/>
          <text x="0" y="1.5" fill="#F0F6FC" font-size="16" font-family="Segoe UI, Arial, sans-serif" font-weight="800" text-anchor="middle" dominant-baseline="middle">LLS</text>
        </g>
        </g>
      </g>
    </g>
  </g>

  <g transform="translate(820 780) rotate(270)">
    <g>
      <animateTransform attributeName="transform" type="rotate" from="0 0 0" to="360 0 0" dur="84s" repeatCount="indefinite"/>
      <g transform="translate(360 0)">
        <g transform="rotate(-270)">
        <g>
          <animateTransform attributeName="transform" type="rotate" from="0 0 0" to="-360 0 0" dur="84s" repeatCount="indefinite"/>
          
        <g transform="rotate(0)">
          <g>
            <animateTransform attributeName="transform" type="rotate" from="0 0 0" to="360 0 0" dur="15s" repeatCount="indefinite"/>
            <g transform="translate(92 0)">
              
  <g opacity="0.8">
    <path d="M 0 0 Q -1 -18 0 -32" stroke="#3572A5" stroke-opacity="0.34" stroke-width="2.2" stroke-linecap="round" fill="none"/>
    <path d="M 0 0 Q -0.5 -13.5 0 -19.2" stroke="#3572A5" stroke-opacity="0.7" stroke-width="1.2" stroke-linecap="round" fill="none"/>
  </g>
              <g transform="rotate(0)">
              <g>
                <animateTransform attributeName="transform" type="rotate" from="0 0 0" to="-360 0 0" dur="15s" repeatCount="indefinite"/>
                
  <g transform="translate(0 0)">
    <circle cx="0" cy="0" r="18" fill="#07111D" stroke="#3572A5" stroke-width="1.2"/>
    <g transform="scale(1.714)">
      
    <path d="M-4.8 -1.8c0-2.1 1.2-3.4 3.4-3.4h2.8c1.9 0 3 1.2 3 2.8v2.3H-1c-1.8 0-3 1.2-3 3v2.1h-1.6c-1.8 0-3.2-1.2-3.2-3.1Z" fill="#4B8BBE"/>
    <circle cx="1.2" cy="-3.1" r="0.75" fill="#EAF4FF"/>
    <path d="M4.8 1.8c0 2.1-1.2 3.4-3.4 3.4h-2.8c-1.9 0-3-1.2-3-2.8V.1H1c1.8 0 3-1.2 3-3v-2.1h1.6c1.8 0 3.2 1.2 3.2 3.1Z" fill="#FFD43B"/>
    <circle cx="-1.2" cy="3.1" r="0.75" fill="#08203A"/>
    </g>
  </g>
              </g>
              </g>
            </g>
          </g>
        </g>

        <g transform="rotate(120)">
          <g>
            <animateTransform attributeName="transform" type="rotate" from="0 0 0" to="360 0 0" dur="15s" repeatCount="indefinite"/>
            <g transform="translate(92 0)">
              
  <g opacity="0.8">
    <path d="M 0 0 Q -1 -18 0 -32" stroke="#DCEBFF" stroke-opacity="0.34" stroke-width="2.2" stroke-linecap="round" fill="none"/>
    <path d="M 0 0 Q -0.5 -13.5 0 -19.2" stroke="#DCEBFF" stroke-opacity="0.7" stroke-width="1.2" stroke-linecap="round" fill="none"/>
  </g>
              <g transform="rotate(-120)">
              <g>
                <animateTransform attributeName="transform" type="rotate" from="0 0 0" to="-360 0 0" dur="15s" repeatCount="indefinite"/>
                
  <g transform="translate(0 0)">
    <circle cx="0" cy="0" r="18" fill="#07111D" stroke="#DCEBFF" stroke-width="1.2"/>
    <g transform="scale(1.714)">
      <circle cx="4.10" cy="0.00" r="1.85" fill="none" stroke="#DCEBFF" stroke-width="1"/><circle cx="2.05" cy="3.55" r="1.85" fill="none" stroke="#DCEBFF" stroke-width="1"/><circle cx="-2.05" cy="3.55" r="1.85" fill="none" stroke="#DCEBFF" stroke-width="1"/><circle cx="-4.10" cy="0.00" r="1.85" fill="none" stroke="#DCEBFF" stroke-width="1"/><circle cx="-2.05" cy="-3.55" r="1.85" fill="none" stroke="#DCEBFF" stroke-width="1"/><circle cx="2.05" cy="-3.55" r="1.85" fill="none" stroke="#DCEBFF" stroke-width="1"/>
    </g>
  </g>
              </g>
              </g>
            </g>
          </g>
        </g>

        <g transform="rotate(240)">
          <g>
            <animateTransform attributeName="transform" type="rotate" from="0 0 0" to="360 0 0" dur="15s" repeatCount="indefinite"/>
            <g transform="translate(92 0)">
              
  <g opacity="0.8">
    <path d="M 0 0 Q -1 -18 0 -32" stroke="#7AA2F7" stroke-opacity="0.34" stroke-width="2.2" stroke-linecap="round" fill="none"/>
    <path d="M 0 0 Q -0.5 -13.5 0 -19.2" stroke="#7AA2F7" stroke-opacity="0.7" stroke-width="1.2" stroke-linecap="round" fill="none"/>
  </g>
              <g transform="rotate(-240)">
              <g>
                <animateTransform attributeName="transform" type="rotate" from="0 0 0" to="-360 0 0" dur="15s" repeatCount="indefinite"/>
                
  <g transform="translate(0 0)">
    <circle cx="0" cy="0" r="18" fill="#07111D" stroke="#7AA2F7" stroke-width="1.2"/>
    <g transform="scale(1.714)">
      
    <rect x="-4.6" y="-4.2" width="7.8" height="2.3" rx="1.1" fill="none" stroke="#7AA2F7" stroke-width="1"/>
    <rect x="-2.8" y="-0.9" width="7.8" height="2.3" rx="1.1" fill="none" stroke="#7AA2F7" stroke-width="1"/>
    <rect x="-4.6" y="2.4" width="7.8" height="2.3" rx="1.1" fill="none" stroke="#7AA2F7" stroke-width="1"/>
    <circle cx="-5.6" cy="-3.1" r="1" fill="#7AA2F7"/>
    <circle cx="5.6" cy="0.2" r="1" fill="#7AA2F7"/>
    <circle cx="-5.6" cy="3.5" r="1" fill="#7AA2F7"/>
    </g>
  </g>
              </g>
              </g>
            </g>
          </g>
        </g>
          <circle cx="0" cy="0" r="69" fill="#6EA8FE" opacity="0.08" filter="url(#solarMainSoftGlow)"/>
          <circle cx="0" cy="0" r="47" fill="#091522" stroke="#6EA8FE" stroke-width="2.1"/>
          <circle cx="-15" cy="-18" r="10" fill="#FFFFFF" opacity="0.08"/>
          <text x="0" y="1.5" fill="#F0F6FC" font-size="16" font-family="Segoe UI, Arial, sans-serif" font-weight="800" text-anchor="middle" dominant-baseline="middle">IS</text>
        </g>
        </g>
      </g>
    </g>
  </g>

  <g transform="translate(820 780) rotate(98)">
    <g>
      <animateTransform attributeName="transform" type="rotate" from="0 0 0" to="360 0 0" dur="87s" repeatCount="indefinite"/>
      <g transform="translate(430 0)">
        <g transform="rotate(-98)">
        <g>
          <animateTransform attributeName="transform" type="rotate" from="0 0 0" to="-360 0 0" dur="87s" repeatCount="indefinite"/>
          
        <g transform="rotate(0)">
          <g>
            <animateTransform attributeName="transform" type="rotate" from="0 0 0" to="360 0 0" dur="17s" repeatCount="indefinite"/>
            <g transform="translate(94 0)">
              
  <g opacity="0.8">
    <path d="M 0 0 Q -1 -18 0 -32" stroke="#2496ED" stroke-opacity="0.34" stroke-width="2.2" stroke-linecap="round" fill="none"/>
    <path d="M 0 0 Q -0.5 -13.5 0 -19.2" stroke="#2496ED" stroke-opacity="0.7" stroke-width="1.2" stroke-linecap="round" fill="none"/>
  </g>
              <g transform="rotate(0)">
              <g>
                <animateTransform attributeName="transform" type="rotate" from="0 0 0" to="-360 0 0" dur="17s" repeatCount="indefinite"/>
                
  <g transform="translate(0 0)">
    <circle cx="0" cy="0" r="18" fill="#07111D" stroke="#2496ED" stroke-width="1.2"/>
    <g transform="scale(1.714)">
      
    <rect x="-5.5" y="-3.8" width="2.5" height="2.5" rx="0.4" fill="#2496ED"/>
    <rect x="-2.2" y="-3.8" width="2.5" height="2.5" rx="0.4" fill="#2496ED"/>
    <rect x="1.1" y="-3.8" width="2.5" height="2.5" rx="0.4" fill="#2496ED"/>
    <rect x="-2.2" y="-0.5" width="2.5" height="2.5" rx="0.4" fill="#2496ED"/>
    <rect x="1.1" y="-0.5" width="2.5" height="2.5" rx="0.4" fill="#2496ED"/>
    <path d="M-6 3.2h10.4c1.6 0 2.2-1.2 1.6-2.2-.5-.8-1.3-1.2-2.5-1.2H-2" stroke="#2496ED" stroke-width="1" stroke-linecap="round" fill="none"/>
    <circle cx="6" cy="2.3" r="0.8" fill="#2496ED"/>
    </g>
  </g>
              </g>
              </g>
            </g>
          </g>
        </g>

        <g transform="rotate(120)">
          <g>
            <animateTransform attributeName="transform" type="rotate" from="0 0 0" to="360 0 0" dur="17s" repeatCount="indefinite"/>
            <g transform="translate(94 0)">
              
  <g opacity="0.8">
    <path d="M 0 0 Q -1 -18 0 -32" stroke="#F0F6FC" stroke-opacity="0.34" stroke-width="2.2" stroke-linecap="round" fill="none"/>
    <path d="M 0 0 Q -0.5 -13.5 0 -19.2" stroke="#F0F6FC" stroke-opacity="0.7" stroke-width="1.2" stroke-linecap="round" fill="none"/>
  </g>
              <g transform="rotate(-120)">
              <g>
                <animateTransform attributeName="transform" type="rotate" from="0 0 0" to="-360 0 0" dur="17s" repeatCount="indefinite"/>
                
  <g transform="translate(0 0)">
    <circle cx="0" cy="0" r="18" fill="#07111D" stroke="#F0F6FC" stroke-width="1.2"/>
    <g transform="scale(1.714)">
      <path d="M0 -5.5 5 3.8h-10Z" fill="#F0F6FC"/>
    </g>
  </g>
              </g>
              </g>
            </g>
          </g>
        </g>

        <g transform="rotate(240)">
          <g>
            <animateTransform attributeName="transform" type="rotate" from="0 0 0" to="360 0 0" dur="17s" repeatCount="indefinite"/>
            <g transform="translate(94 0)">
              
  <g opacity="0.8">
    <path d="M 0 0 Q -1 -18 0 -32" stroke="#7F56D9" stroke-opacity="0.34" stroke-width="2.2" stroke-linecap="round" fill="none"/>
    <path d="M 0 0 Q -0.5 -13.5 0 -19.2" stroke="#7F56D9" stroke-opacity="0.7" stroke-width="1.2" stroke-linecap="round" fill="none"/>
  </g>
              <g transform="rotate(-240)">
              <g>
                <animateTransform attributeName="transform" type="rotate" from="0 0 0" to="-360 0 0" dur="17s" repeatCount="indefinite"/>
                
  <g transform="translate(0 0)">
    <circle cx="0" cy="0" r="18" fill="#07111D" stroke="#7F56D9" stroke-width="1.2"/>
    <g transform="scale(1.714)">
      
    <rect x="-4.8" y="-5" width="2.4" height="10" rx="0.8" fill="#7F56D9"/>
    <rect x="1.4" y="-5" width="2.4" height="10" rx="0.8" fill="#7F56D9"/>
    <rect x="-2" y="-1" width="3.8" height="2" rx="0.8" fill="#7F56D9"/>
    <rect x="-0.3" y="-5" width="1.6" height="10" rx="0.8" fill="#07111D" opacity="0.55"/>
    </g>
  </g>
              </g>
              </g>
            </g>
          </g>
        </g>
          <circle cx="0" cy="0" r="69" fill="#9ECFFF" opacity="0.08" filter="url(#solarMainSoftGlow)"/>
          <circle cx="0" cy="0" r="47" fill="#091522" stroke="#9ECFFF" stroke-width="2.1"/>
          <circle cx="-15" cy="-18" r="10" fill="#FFFFFF" opacity="0.08"/>
          <text x="0" y="1.5" fill="#F0F6FC" font-size="14" font-family="Segoe UI, Arial, sans-serif" font-weight="800" text-anchor="middle" dominant-baseline="middle">Infra</text>
        </g>
        </g>
      </g>
    </g>
  </g>

  <g transform="translate(820 780) rotate(190)">
    <g>
      <animateTransform attributeName="transform" type="rotate" from="0 0 0" to="360 0 0" dur="90s" repeatCount="indefinite"/>
      <g transform="translate(500 0)">
        <g transform="rotate(-190)">
        <g>
          <animateTransform attributeName="transform" type="rotate" from="0 0 0" to="-360 0 0" dur="90s" repeatCount="indefinite"/>
          
        <g transform="rotate(0)">
          <g>
            <animateTransform attributeName="transform" type="rotate" from="0 0 0" to="360 0 0" dur="14s" repeatCount="indefinite"/>
            <g transform="translate(98 0)">
              
  <g opacity="0.8">
    <path d="M 0 0 Q -1 -18 0 -32" stroke="#2088FF" stroke-opacity="0.34" stroke-width="2.2" stroke-linecap="round" fill="none"/>
    <path d="M 0 0 Q -0.5 -13.5 0 -19.2" stroke="#2088FF" stroke-opacity="0.7" stroke-width="1.2" stroke-linecap="round" fill="none"/>
  </g>
              <g transform="rotate(0)">
              <g>
                <animateTransform attributeName="transform" type="rotate" from="0 0 0" to="-360 0 0" dur="14s" repeatCount="indefinite"/>
                
  <g transform="translate(0 0)">
    <circle cx="0" cy="0" r="18" fill="#07111D" stroke="#2088FF" stroke-width="1.2"/>
    <g transform="scale(1.714)">
      
    <circle cx="-3.6" cy="-2.8" r="1.5" fill="none" stroke="#2088FF" stroke-width="1"/>
    <circle cx="3.6" cy="0" r="1.5" fill="none" stroke="#2088FF" stroke-width="1"/>
    <circle cx="-1.2" cy="3.5" r="1.5" fill="none" stroke="#2088FF" stroke-width="1"/>
    <path d="M-2.4 -1.9 2 .4M-2.4 -1.8-.1 2.3" stroke="#2088FF" stroke-width="1" stroke-linecap="round" fill="none"/>
    <path d="M1.3 -3.9h3.3v3.3" stroke="#2088FF" stroke-width="1" stroke-linecap="round" stroke-linejoin="round" fill="none"/>
    </g>
  </g>
              </g>
              </g>
            </g>
          </g>
        </g>

        <g transform="rotate(120)">
          <g>
            <animateTransform attributeName="transform" type="rotate" from="0 0 0" to="360 0 0" dur="14s" repeatCount="indefinite"/>
            <g transform="translate(98 0)">
              
  <g opacity="0.8">
    <path d="M 0 0 Q -1 -18 0 -32" stroke="#34A853" stroke-opacity="0.34" stroke-width="2.2" stroke-linecap="round" fill="none"/>
    <path d="M 0 0 Q -0.5 -13.5 0 -19.2" stroke="#34A853" stroke-opacity="0.7" stroke-width="1.2" stroke-linecap="round" fill="none"/>
  </g>
              <g transform="rotate(-120)">
              <g>
                <animateTransform attributeName="transform" type="rotate" from="0 0 0" to="-360 0 0" dur="14s" repeatCount="indefinite"/>
                
  <g transform="translate(0 0)">
    <circle cx="0" cy="0" r="18" fill="#07111D" stroke="#34A853" stroke-width="1.2"/>
    <g transform="scale(1.714)">
      
    <path d="M-4.8-4.8h6.5l3.1 3.1V4.8H-4.8Z" fill="none" stroke="#34A853" stroke-width="1" stroke-linejoin="round"/>
    <path d="M1.7-4.8v3.1h3.1" fill="none" stroke="#34A853" stroke-width="1" stroke-linejoin="round"/>
    <path d="M-2.3-.6 0-2.6 2.3-.6" stroke="#34A853" stroke-width="1" stroke-linecap="round" stroke-linejoin="round" fill="none"/>
    <path d="M-2.3 1.8 0 3.8 2.3 1.8" stroke="#34A853" stroke-width="1" stroke-linecap="round" stroke-linejoin="round" fill="none"/>
    </g>
  </g>
              </g>
              </g>
            </g>
          </g>
        </g>

        <g transform="rotate(240)">
          <g>
            <animateTransform attributeName="transform" type="rotate" from="0 0 0" to="360 0 0" dur="14s" repeatCount="indefinite"/>
            <g transform="translate(98 0)">
              
  <g opacity="0.8">
    <path d="M 0 0 Q -1 -18 0 -32" stroke="#58A6FF" stroke-opacity="0.34" stroke-width="2.2" stroke-linecap="round" fill="none"/>
    <path d="M 0 0 Q -0.5 -13.5 0 -19.2" stroke="#58A6FF" stroke-opacity="0.7" stroke-width="1.2" stroke-linecap="round" fill="none"/>
  </g>
              <g transform="rotate(-240)">
              <g>
                <animateTransform attributeName="transform" type="rotate" from="0 0 0" to="-360 0 0" dur="14s" repeatCount="indefinite"/>
                
  <g transform="translate(0 0)">
    <circle cx="0" cy="0" r="18" fill="#07111D" stroke="#58A6FF" stroke-width="1.2"/>
    <g transform="scale(1.714)">
      
    <circle cx="-3.8" cy="-2.8" r="1.4" fill="none" stroke="#58A6FF" stroke-width="1"/>
    <circle cx="3.8" cy="-1.2" r="1.4" fill="none" stroke="#58A6FF" stroke-width="1"/>
    <circle cx="0.2" cy="3.6" r="1.4" fill="none" stroke="#58A6FF" stroke-width="1"/>
    <path d="M-2.4 -2.3h4.4M-.7 -1.6v4" stroke="#58A6FF" stroke-width="1" stroke-linecap="round" fill="none"/>
    <path d="M1.2 2.6 2.9-.1" stroke="#58A6FF" stroke-width="1" stroke-linecap="round" fill="none"/>
    </g>
  </g>
              </g>
              </g>
            </g>
          </g>
        </g>
          <circle cx="0" cy="0" r="70" fill="#7AA2F7" opacity="0.08" filter="url(#solarMainSoftGlow)"/>
          <circle cx="0" cy="0" r="48" fill="#091522" stroke="#7AA2F7" stroke-width="2.1"/>
          <circle cx="-15" cy="-18" r="11" fill="#FFFFFF" opacity="0.08"/>
          <text x="0" y="1.5" fill="#F0F6FC" font-size="16" font-family="Segoe UI, Arial, sans-serif" font-weight="800" text-anchor="middle" dominant-baseline="middle">AS</text>
        </g>
        </g>
      </g>
    </g>
  </g>

  <g transform="translate(820 780) rotate(350)">
    <g>
      <animateTransform attributeName="transform" type="rotate" from="0 0 0" to="360 0 0" dur="93s" repeatCount="indefinite"/>
      <g transform="translate(570 0)">
        <g transform="rotate(-350)">
        <g>
          <animateTransform attributeName="transform" type="rotate" from="0 0 0" to="-360 0 0" dur="93s" repeatCount="indefinite"/>
          
        <g transform="rotate(0)">
          <g>
            <animateTransform attributeName="transform" type="rotate" from="0 0 0" to="360 0 0" dur="13s" repeatCount="indefinite"/>
            <g transform="translate(102 0)">
              
  <g opacity="0.8">
    <path d="M 0 0 Q -1 -18 0 -32" stroke="#336791" stroke-opacity="0.34" stroke-width="2.2" stroke-linecap="round" fill="none"/>
    <path d="M 0 0 Q -0.5 -13.5 0 -19.2" stroke="#336791" stroke-opacity="0.7" stroke-width="1.2" stroke-linecap="round" fill="none"/>
  </g>
              <g transform="rotate(0)">
              <g>
                <animateTransform attributeName="transform" type="rotate" from="0 0 0" to="-360 0 0" dur="13s" repeatCount="indefinite"/>
                
  <g transform="translate(0 0)">
    <circle cx="0" cy="0" r="18" fill="#07111D" stroke="#336791" stroke-width="1.2"/>
    <g transform="scale(1.714)">
      
    <ellipse cx="0" cy="-3.4" rx="4.6" ry="1.8" fill="none" stroke="#336791" stroke-width="1"/>
    <path d="M-4.6-3.4v5.8c0 1 2.1 1.8 4.6 1.8s4.6-.8 4.6-1.8v-5.8" fill="none" stroke="#336791" stroke-width="1"/>
    <path d="M-4.6-.4c0 1 2.1 1.8 4.6 1.8S4.6.6 4.6-.4" fill="none" stroke="#336791" stroke-width="1"/>
    </g>
  </g>
              </g>
              </g>
            </g>
          </g>
        </g>

        <g transform="rotate(120)">
          <g>
            <animateTransform attributeName="transform" type="rotate" from="0 0 0" to="360 0 0" dur="13s" repeatCount="indefinite"/>
            <g transform="translate(102 0)">
              
  <g opacity="0.8">
    <path d="M 0 0 Q -1 -18 0 -32" stroke="#5a67d8" stroke-opacity="0.34" stroke-width="2.2" stroke-linecap="round" fill="none"/>
    <path d="M 0 0 Q -0.5 -13.5 0 -19.2" stroke="#5a67d8" stroke-opacity="0.7" stroke-width="1.2" stroke-linecap="round" fill="none"/>
  </g>
              <g transform="rotate(-120)">
              <g>
                <animateTransform attributeName="transform" type="rotate" from="0 0 0" to="-360 0 0" dur="13s" repeatCount="indefinite"/>
                
  <g transform="translate(0 0)">
    <circle cx="0" cy="0" r="18" fill="#07111D" stroke="#5a67d8" stroke-width="1.2"/>
    <g transform="scale(1.714)">
      <path d="M-3.2 4.8 0-5l4.2 7.6Z" fill="none" stroke="#5a67d8" stroke-width="1.2" stroke-linejoin="round"/>
    </g>
  </g>
              </g>
              </g>
            </g>
          </g>
        </g>

        <g transform="rotate(240)">
          <g>
            <animateTransform attributeName="transform" type="rotate" from="0 0 0" to="360 0 0" dur="13s" repeatCount="indefinite"/>
            <g transform="translate(102 0)">
              
  <g opacity="0.8">
    <path d="M 0 0 Q -1 -18 0 -32" stroke="#9ECFFF" stroke-opacity="0.34" stroke-width="2.2" stroke-linecap="round" fill="none"/>
    <path d="M 0 0 Q -0.5 -13.5 0 -19.2" stroke="#9ECFFF" stroke-opacity="0.7" stroke-width="1.2" stroke-linecap="round" fill="none"/>
  </g>
              <g transform="rotate(-240)">
              <g>
                <animateTransform attributeName="transform" type="rotate" from="0 0 0" to="-360 0 0" dur="13s" repeatCount="indefinite"/>
                
  <g transform="translate(0 0)">
    <circle cx="0" cy="0" r="18" fill="#07111D" stroke="#9ECFFF" stroke-width="1.2"/>
    <g transform="scale(1.714)">
      
    <ellipse cx="0" cy="-2.7" rx="4.6" ry="1.8" fill="none" stroke="#9ECFFF" stroke-width="1"/>
    <path d="M-4.6-2.7v4.7c0 1 2.1 1.8 4.6 1.8s4.6-.8 4.6-1.8v-4.7" fill="none" stroke="#9ECFFF" stroke-width="1"/>
    <text x="0" y="1.2" fill="#9ECFFF" font-size="3.8" font-family="Segoe UI, Arial, sans-serif" font-weight="800" text-anchor="middle" dominant-baseline="middle">SQL</text>
    </g>
  </g>
              </g>
              </g>
            </g>
          </g>
        </g>
          <circle cx="0" cy="0" r="70" fill="#4F8FE8" opacity="0.08" filter="url(#solarMainSoftGlow)"/>
          <circle cx="0" cy="0" r="48" fill="#091522" stroke="#4F8FE8" stroke-width="2.1"/>
          <circle cx="-15" cy="-18" r="11" fill="#FFFFFF" opacity="0.08"/>
          <text x="0" y="1.5" fill="#F0F6FC" font-size="16" font-family="Segoe UI, Arial, sans-serif" font-weight="800" text-anchor="middle" dominant-baseline="middle">DL</text>
        </g>
        </g>
      </g>
    </g>
  </g>
  <text x="44" y="1516" fill="#C9D1D9" font-size="13.5" font-family="Segoe UI, Arial, sans-serif">The solar map is isolated here to maximize readability for both the planet abbreviations and the moon symbols.</text>
</svg>