<svg width="336" height="140" viewBox="0 0 336 140" fill="none" xmlns="http://www.w3.org/2000/svg">
  <rect x="10" y="8" width="316" height="124" rx="8" fill="#0D1117"/>
  <text x="24" y="29" fill="#F0F6FC" font-size="14" font-family="Segoe UI, Arial, sans-serif" font-weight="700">Languages</text>
  <rect x="24" y="48" width="274" height="8" rx="4" fill="#21262D"/>
  <clipPath id="langBarClip">
    <rect x="24" y="48" width="274" height="8" rx="4"/>
  </clipPath>
  <g clip-path="url(#langBarClip)">
    <rect x="24.00" y="48" width="126.52" height="8" fill="#3178c6"/>
    <rect x="150.52" y="48" width="95.51" height="8" fill="#3572A5"/>
    <rect x="246.03" y="48" width="34.85" height="8" fill="#f1e05a"/>
    <rect x="280.88" y="48" width="11.00" height="8" fill="#563d7c"/>
    <rect x="291.88" y="48" width="6.12" height="8" fill="#e34c26"/>
  </g>
  
  <circle cx="28" cy="80" r="4" fill="#3178c6"/>
  <text x="42" y="81" fill="#F0F6FC" font-size="12.5" font-family="Segoe UI, Arial, sans-serif" font-weight="600" dominant-baseline="middle">TypeScript</text>
  <text x="113" y="81" fill="#8B949E" font-size="12" font-family="Segoe UI, Arial, sans-serif" dominant-baseline="middle">45.8%</text>

  <circle cx="28" cy="104" r="4" fill="#3572A5"/>
  <text x="42" y="105" fill="#F0F6FC" font-size="12.5" font-family="Segoe UI, Arial, sans-serif" font-weight="600" dominant-baseline="middle">Python</text>
  <text x="84.6" y="105" fill="#8B949E" font-size="12" font-family="Segoe UI, Arial, sans-serif" dominant-baseline="middle">34.6%</text>

  <circle cx="28" cy="128" r="4" fill="#f1e05a"/>
  <text x="42" y="129" fill="#F0F6FC" font-size="12.5" font-family="Segoe UI, Arial, sans-serif" font-weight="600" dominant-baseline="middle">JavaScript</text>
  <text x="113" y="129" fill="#8B949E" font-size="12" font-family="Segoe UI, Arial, sans-serif" dominant-baseline="middle">12.6%</text>

  <circle cx="170" cy="80" r="4" fill="#563d7c"/>
  <text x="184" y="81" fill="#F0F6FC" font-size="12.5" font-family="Segoe UI, Arial, sans-serif" font-weight="600" dominant-baseline="middle">CSS</text>
  <text x="205.3" y="81" fill="#8B949E" font-size="12" font-family="Segoe UI, Arial, sans-serif" dominant-baseline="middle">4.0%</text>

  <circle cx="170" cy="104" r="4" fill="#e34c26"/>
  <text x="184" y="105" fill="#F0F6FC" font-size="12.5" font-family="Segoe UI, Arial, sans-serif" font-weight="600" dominant-baseline="middle">HTML</text>
  <text x="212.4" y="105" fill="#8B949E" font-size="12" font-family="Segoe UI, Arial, sans-serif" dominant-baseline="middle">2.2%</text>
</svg>