<svg width="336" height="140" viewBox="0 0 336 140" fill="none" xmlns="http://www.w3.org/2000/svg">
  <rect x="10" y="8" width="316" height="124" rx="8" fill="#0D1117"/>
  <text x="24" y="29" fill="#F0F6FC" font-size="14" font-family="Segoe UI, Arial, sans-serif" font-weight="700">Languages</text>
  <rect x="24" y="48" width="274" height="8" rx="4" fill="#21262D"/>
  <clipPath id="langBarClip">
    <rect x="24" y="48" width="274" height="8" rx="4"/>
  </clipPath>
  <g clip-path="url(#langBarClip)">
    <rect x="24.00" y="48" width="98.64" height="8" fill="#f1e05a"/>
    <rect x="122.64" y="48" width="72.19" height="8" fill="#e34c26"/>
    <rect x="194.83" y="48" width="65.97" height="8" fill="#563d7c"/>
    <rect x="260.80" y="48" width="46.83" height="8" fill="#3572A5"/>
    <rect x="307.63" y="48" width="14.37" height="8" fill="#384d54"/>
  </g>
  <circle cx="28" cy="80" r="4" fill="#f1e05a"/>
  <text x="42" y="81" fill="#F0F6FC" font-size="12.5" font-family="Segoe UI, Arial, sans-serif" font-weight="600" dominant-baseline="middle">JavaScript</text>
  <text x="110" y="81" fill="#8B949E" font-size="12" font-family="Segoe UI, Arial, sans-serif" dominant-baseline="middle">35.1%</text>
  <circle cx="170" cy="80" r="4" fill="#e34c26"/>
  <text x="184" y="81" fill="#F0F6FC" font-size="12.5" font-family="Segoe UI, Arial, sans-serif" font-weight="600" dominant-baseline="middle">HTML</text>
  <text x="222" y="81" fill="#8B949E" font-size="12" font-family="Segoe UI, Arial, sans-serif" dominant-baseline="middle">23.6%</text>
  <circle cx="28" cy="104" r="4" fill="#563d7c"/>
  <text x="42" y="105" fill="#F0F6FC" font-size="12.5" font-family="Segoe UI, Arial, sans-serif" font-weight="600" dominant-baseline="middle">CSS</text>
  <text x="68" y="105" fill="#8B949E" font-size="12" font-family="Segoe UI, Arial, sans-serif" dominant-baseline="middle">21.6%</text>
  <circle cx="170" cy="104" r="4" fill="#3572A5"/>
  <text x="184" y="105" fill="#F0F6FC" font-size="12.5" font-family="Segoe UI, Arial, sans-serif" font-weight="600" dominant-baseline="middle">Python</text>
  <text x="228" y="105" fill="#8B949E" font-size="12" font-family="Segoe UI, Arial, sans-serif" dominant-baseline="middle">16.6%</text>
  <circle cx="28" cy="128" r="4" fill="#384d54"/>
  <text x="42" y="129" fill="#F0F6FC" font-size="12.5" font-family="Segoe UI, Arial, sans-serif" font-weight="600" dominant-baseline="middle">Dockerfile</text>
  <text x="104" y="129" fill="#8B949E" font-size="12" font-family="Segoe UI, Arial, sans-serif" dominant-baseline="middle">3.1%</text>
</svg>