<svg width="720" height="320" viewBox="0 0 720 320" fill="none" xmlns="http://www.w3.org/2000/svg">
  <defs>
    <linearGradient id="langBg" x1="0" y1="0" x2="720" y2="320" gradientUnits="userSpaceOnUse">
      <stop offset="0" stop-color="#08101A"/>
      <stop offset="1" stop-color="#10304F"/>
    </linearGradient>
  </defs>
  <rect width="720" height="320" rx="26" fill="url(#langBg)"/>
  <text x="42" y="46" fill="#E6F1FF" font-size="26" font-family="Segoe UI, Arial, sans-serif" font-weight="700">Top Languages</text>
  <text x="42" y="68" fill="#9ECFFF" font-size="14" font-family="Segoe UI, Arial, sans-serif">Live aggregation across HexAbyss public repositories</text>
  
  <text x="42" y="103" fill="#E6F1FF" font-size="14" font-family="Segoe UI, Arial, sans-serif">JavaScript</text>
  <rect x="240" y="91" width="360" height="12" rx="6" fill="rgba(255,255,255,0.08)"/>
  <rect x="240" y="91" width="137.67" height="12" rx="6" fill="#f1e05a"/>
  <text x="614" y="103" fill="#9ECFFF" font-size="13" font-family="Segoe UI, Arial, sans-serif">38.2%</text>

  <text x="42" y="130" fill="#E6F1FF" font-size="14" font-family="Segoe UI, Arial, sans-serif">TypeScript</text>
  <rect x="240" y="118" width="360" height="12" rx="6" fill="rgba(255,255,255,0.08)"/>
  <rect x="240" y="118" width="99.74" height="12" rx="6" fill="#3178c6"/>
  <text x="614" y="130" fill="#9ECFFF" font-size="13" font-family="Segoe UI, Arial, sans-serif">27.7%</text>

  <text x="42" y="157" fill="#E6F1FF" font-size="14" font-family="Segoe UI, Arial, sans-serif">CSS</text>
  <rect x="240" y="145" width="360" height="12" rx="6" fill="rgba(255,255,255,0.08)"/>
  <rect x="240" y="145" width="51.79" height="12" rx="6" fill="#563d7c"/>
  <text x="614" y="157" fill="#9ECFFF" font-size="13" font-family="Segoe UI, Arial, sans-serif">14.4%</text>

  <text x="42" y="184" fill="#E6F1FF" font-size="14" font-family="Segoe UI, Arial, sans-serif">HTML</text>
  <rect x="240" y="172" width="360" height="12" rx="6" fill="rgba(255,255,255,0.08)"/>
  <rect x="240" y="172" width="40.84" height="12" rx="6" fill="#e34c26"/>
  <text x="614" y="184" fill="#9ECFFF" font-size="13" font-family="Segoe UI, Arial, sans-serif">11.3%</text>

  <text x="42" y="211" fill="#E6F1FF" font-size="14" font-family="Segoe UI, Arial, sans-serif">Python</text>
  <rect x="240" y="199" width="360" height="12" rx="6" fill="rgba(255,255,255,0.08)"/>
  <rect x="240" y="199" width="23.70" height="12" rx="6" fill="#3572A5"/>
  <text x="614" y="211" fill="#9ECFFF" font-size="13" font-family="Segoe UI, Arial, sans-serif">6.6%</text>

  <text x="42" y="238" fill="#E6F1FF" font-size="14" font-family="Segoe UI, Arial, sans-serif">Dockerfile</text>
  <rect x="240" y="226" width="360" height="12" rx="6" fill="rgba(255,255,255,0.08)"/>
  <rect x="240" y="226" width="14.00" height="12" rx="6" fill="#384d54"/>
  <text x="614" y="238" fill="#9ECFFF" font-size="13" font-family="Segoe UI, Arial, sans-serif">1.7%</text>
  <text x="42" y="292" fill="#C9D1D9" font-size="12" font-family="Segoe UI, Arial, sans-serif">Generated by workflow to avoid third-party cache delays</text>
  <text x="420" y="292" fill="#6EA8FE" font-size="12" font-family="Segoe UI, Arial, sans-serif">Add PROFILE_SIGNAL_TOKEN to include private repositories</text>
</svg>