<svg width="540" height="170" viewBox="0 0 540 170" fill="none" xmlns="http://www.w3.org/2000/svg">
  <rect x="10" y="8" width="520" height="154" rx="8" fill="#0D1117"/>
  <text x="24" y="29" fill="#F0F6FC" font-size="14" font-family="Segoe UI, Arial, sans-serif" font-weight="700">Languages</text>
  <text x="24" y="47" fill="#8B949E" font-size="11" font-family="Segoe UI, Arial, sans-serif" font-weight="600">Public repositories</text>
  <rect x="24" y="58" width="492" height="10" rx="4" fill="#21262D"/>
  <clipPath id="langBarClip">
    <rect x="24" y="58" width="492" height="10" rx="4"/>
  </clipPath>
  <g clip-path="url(#langBarClip)">
    <rect x="24.00" y="58" width="143.69" height="10" fill="#3178c6"/>
    <rect x="167.69" y="58" width="117.36" height="10" fill="#f1e05a"/>
    <rect x="285.05" y="58" width="90.54" height="10" fill="#dea584"/>
    <rect x="375.59" y="58" width="79.45" height="10" fill="#563d7c"/>
    <rect x="455.05" y="58" width="32.43" height="10" fill="#e34c26"/>
    <rect x="487.47" y="58" width="18.82" height="10" fill="#3572A5"/>
    <rect x="506.29" y="58" width="6.24" height="10" fill="#384d54"/>
    <rect x="512.52" y="58" width="3.48" height="10" fill="#89e051"/>
  </g>
  
  <circle cx="28" cy="82" r="4" fill="#3178c6"/>
  <text x="42" y="83" fill="#F0F6FC" font-size="12.5" font-family="Segoe UI, Arial, sans-serif" font-weight="600" dominant-baseline="middle">TypeScript</text>
  <text x="166" y="83" fill="#8B949E" font-size="12" font-family="Segoe UI, Arial, sans-serif" dominant-baseline="middle" text-anchor="end">29.2%</text>

  <circle cx="28" cy="106" r="4" fill="#f1e05a"/>
  <text x="42" y="107" fill="#F0F6FC" font-size="12.5" font-family="Segoe UI, Arial, sans-serif" font-weight="600" dominant-baseline="middle">JavaScript</text>
  <text x="166" y="107" fill="#8B949E" font-size="12" font-family="Segoe UI, Arial, sans-serif" dominant-baseline="middle" text-anchor="end">23.9%</text>

  <circle cx="28" cy="130" r="4" fill="#dea584"/>
  <text x="42" y="131" fill="#F0F6FC" font-size="12.5" font-family="Segoe UI, Arial, sans-serif" font-weight="600" dominant-baseline="middle">Rust</text>
  <text x="166" y="131" fill="#8B949E" font-size="12" font-family="Segoe UI, Arial, sans-serif" dominant-baseline="middle" text-anchor="end">18.4%</text>

  <circle cx="190" cy="82" r="4" fill="#563d7c"/>
  <text x="204" y="83" fill="#F0F6FC" font-size="12.5" font-family="Segoe UI, Arial, sans-serif" font-weight="600" dominant-baseline="middle">CSS</text>
  <text x="328" y="83" fill="#8B949E" font-size="12" font-family="Segoe UI, Arial, sans-serif" dominant-baseline="middle" text-anchor="end">16.1%</text>

  <circle cx="190" cy="106" r="4" fill="#e34c26"/>
  <text x="204" y="107" fill="#F0F6FC" font-size="12.5" font-family="Segoe UI, Arial, sans-serif" font-weight="600" dominant-baseline="middle">HTML</text>
  <text x="328" y="107" fill="#8B949E" font-size="12" font-family="Segoe UI, Arial, sans-serif" dominant-baseline="middle" text-anchor="end">6.6%</text>

  <circle cx="190" cy="130" r="4" fill="#3572A5"/>
  <text x="204" y="131" fill="#F0F6FC" font-size="12.5" font-family="Segoe UI, Arial, sans-serif" font-weight="600" dominant-baseline="middle">Python</text>
  <text x="328" y="131" fill="#8B949E" font-size="12" font-family="Segoe UI, Arial, sans-serif" dominant-baseline="middle" text-anchor="end">3.8%</text>

  <circle cx="352" cy="82" r="4" fill="#384d54"/>
  <text x="366" y="83" fill="#F0F6FC" font-size="12.5" font-family="Segoe UI, Arial, sans-serif" font-weight="600" dominant-baseline="middle">Dockerfile</text>
  <text x="490" y="83" fill="#8B949E" font-size="12" font-family="Segoe UI, Arial, sans-serif" dominant-baseline="middle" text-anchor="end">1.3%</text>

  <circle cx="352" cy="106" r="4" fill="#89e051"/>
  <text x="366" y="107" fill="#F0F6FC" font-size="12.5" font-family="Segoe UI, Arial, sans-serif" font-weight="600" dominant-baseline="middle">Shell</text>
  <text x="490" y="107" fill="#8B949E" font-size="12" font-family="Segoe UI, Arial, sans-serif" dominant-baseline="middle" text-anchor="end">0.7%</text>
</svg>